<svg width="8" height="12" viewBox="0 0 8 12" fill="none" xmlns="http://www.w3.org/2000/svg">
<path fill-rule="evenodd" clip-rule="evenodd" d="M0.0957141 11.7244C0.29119 11.9616 0.666228 12.0659 0.930695 11.9566C1.05993 11.9033 7.86781 6.34286 7.94017 6.23159C7.97309 6.18098 8 6.0768 8 6C8 5.9232 7.97309 5.81901 7.94017 5.7684C7.86781 5.65714 1.05993 0.0967478 0.930694 0.0433788C0.666227 -0.0658795 0.291189 0.0384402 0.0957131 0.275587C-0.00852416 0.40201 -0.0319795 0.638101 0.0469692 0.765819C0.0722578 0.806723 1.51108 2.00114 3.24437 3.4201L6.39582 6L3.24437 8.5799C1.51108 9.99886 0.0722587 11.1933 0.0469701 11.2342C-0.0319786 11.3619 -0.00852317 11.598 0.0957141 11.7244Z" fill="white"/>
</svg>
