<svg width="15" height="15" fill="none" xmlns="http://www.w3.org/2000/svg"><path d="M7.443 0h.117c.834.081 1.402.67 1.403 1.509a3411.632 3411.632 0 0 1 .004 2.444.008.008 0 0 0 .012 0c.177-.179.378-.402.558-.533a1.463 1.463 0 0 1 2.066.348 1.47 1.47 0 0 1 .045 1.592c-.136.226-.38.443-.584.646-.02.02-.016.03.012.03h2.454c.824 0 1.397.616 1.47 1.414v.096c-.043.82-.681 1.416-1.502 1.417a2540.1 2540.1 0 0 1-2.445.004.01.01 0 0 0-.004.005.01.01 0 0 0 .002.012c.191.187.426.4.56.595.559.82.133 1.99-.83 2.234a1.437 1.437 0 0 1-1.124-.153c-.237-.14-.47-.399-.678-.614a.008.008 0 0 0-.004-.002H8.97a.008.008 0 0 0-.004.003.008.008 0 0 0-.001.004v2.234c0 .265-.014.459-.042.582A1.472 1.472 0 0 1 7.55 15h-.103c-.81-.064-1.409-.669-1.41-1.48l-.002-2.439c0-.032-.011-.037-.034-.014-.373.383-.689.735-1.242.788a1.467 1.467 0 0 1-1.521-1.993c.136-.356.445-.62.71-.877a.012.012 0 0 0 .003-.013.012.012 0 0 0-.01-.007H1.707a2.928 2.928 0 0 1-.582-.042C.483 8.773.043 8.215 0 7.557V7.44c.052-.816.683-1.4 1.501-1.401a1453.84 1453.84 0 0 1 2.451-.006.008.008 0 0 0 .001-.012c-.132-.13-.264-.262-.394-.395a1.464 1.464 0 0 1 .38-2.332c.528-.269 1.226-.184 1.65.228a25.207 25.207 0 0 1 .438.436.007.007 0 0 0 .008-.007V1.487C6.037.675 6.633.063 7.444 0ZM.803 6.926c-.498.57-.077 1.453.662 1.453h4.764c.312 0 .392.108.392.422v4.562c0 .193.014.336.042.428.247.816 1.423.823 1.67.016.031-.1.046-.283.046-.549V8.73c0-.285.144-.351.414-.351h4.581c.197 0 .341-.015.431-.043.816-.26.8-1.431-.022-1.674a1.543 1.543 0 0 0-.412-.041H8.773c-.225 0-.395-.066-.395-.315v-4.69a1.57 1.57 0 0 0-.037-.398.886.886 0 0 0-.835-.632c-.475-.017-.886.403-.886.879v4.761c0 .225-.066.395-.315.395H1.644c-.372 0-.609.04-.84.305Zm4.37-2.987A.875.875 0 0 0 4.1 3.877a.885.885 0 0 0-.28 1.125c.046.086.139.198.278.337l.684.684a.038.038 0 0 0 .029.012h1.21a.015.015 0 0 0 .014-.014V4.813a.033.033 0 0 0-.01-.024 23.151 23.151 0 0 0-.852-.85Zm6.017 1.036c.37-.743-.457-1.539-1.182-1.16a1.735 1.735 0 0 0-.362.298l-.67.67a.038.038 0 0 0-.011.028v1.21a.015.015 0 0 0 .014.014h1.21c.01 0 .018-.003.025-.01.23-.225.458-.453.683-.682.15-.154.247-.276.293-.368ZM3.749 10.18c-.167.713.555 1.352 1.238 1.008.089-.045.217-.151.386-.32l.654-.654a.028.028 0 0 0 .008-.02V8.979a.015.015 0 0 0-.014-.014H4.806a.029.029 0 0 0-.02.009l-.751.75c-.143.143-.244.277-.286.456Zm6.064.867c.682.625 1.716-.096 1.41-.957a.743.743 0 0 0-.173-.28c-.276-.278-.552-.554-.827-.828a.059.059 0 0 0-.042-.017H8.98a.015.015 0 0 0-.014.014v1.208c0 .01.003.018.01.024.402.414.681.693.838.836Z" fill="url(#a)"/><defs><linearGradient id="a" x1="0" y1="0" x2="15" y2="15" gradientUnits="userSpaceOnUse"><stop stop-color="#B381E0"/><stop offset="1" stop-color="#5FABD9"/></linearGradient></defs></svg>