<svg width="15" height="10" viewBox="0 0 15 10" fill="none" xmlns="http://www.w3.org/2000/svg">
<path fill-rule="evenodd" clip-rule="evenodd" d="M0.344484 0.735947C0.0480511 0.950069 -0.0823488 1.36088 0.0542241 1.65057C0.120935 1.79213 7.07142 9.24938 7.21051 9.32865C7.27377 9.3647 7.404 9.39418 7.5 9.39418C7.596 9.39418 7.72623 9.3647 7.78949 9.32865C7.92858 9.24938 14.8791 1.79213 14.9458 1.65057C15.0823 1.36088 14.9519 0.950069 14.6555 0.735947C14.4975 0.621767 14.2024 0.596075 14.0427 0.682554C13.9916 0.710255 12.4986 2.28632 10.7249 4.18494L7.5 7.63699L4.27513 4.18494C2.50142 2.28632 1.0084 0.710255 0.957274 0.682554C0.797627 0.596075 0.502513 0.621767 0.344484 0.735947Z" fill="#722086"/>
</svg>
