<svg width="175" height="175" viewBox="0 0 175 175" fill="none" xmlns="http://www.w3.org/2000/svg">
<path fill-rule="evenodd" clip-rule="evenodd" d="M79.6065 0.0770699C67.5319 1.53327 58.7465 4.05116 49.0174 8.84443C25.4209 20.4703 8.26556 42.1404 2.37563 67.7609C0.712728 74.9938 0.369629 78.3743 0.369629 87.5218C0.369629 96.6693 0.712728 100.05 2.37563 107.283C9.84653 139.78 35.4409 165.483 67.8002 172.985C75.0024 174.655 78.3686 175 87.4774 175C96.8752 175 100.287 174.63 107.87 172.791C133.214 166.645 154.346 149.636 165.822 126.145C169.913 117.77 172.345 110.027 173.945 100.277C174.865 94.6745 174.857 80.3925 173.932 74.7671C172.294 64.8173 169.853 57.0786 165.657 48.539C153.336 23.4625 129.304 5.6385 101.43 0.903434C98.0147 0.323183 95.0567 0.118029 88.9085 0.0350333C84.4811 -0.0249679 80.2952 -0.00592577 79.6065 0.0770699ZM94.637 3.83307C103.935 6.42031 110.98 13.5583 113.658 23.1046C114.758 27.0252 114.758 33.0461 113.658 36.9667C110.965 46.5658 103.955 53.6201 94.4335 56.3129C90.4726 57.4332 84.5044 57.4397 80.5757 56.328C70.9951 53.6172 63.9989 46.6057 61.3114 37.0213C60.1887 33.0185 60.1887 27.0528 61.3114 23.05C64.303 12.382 72.781 4.81717 83.7126 3.06132C86.4059 2.62874 91.6375 2.99809 94.637 3.83307ZM66.1216 8.92743C60.3272 14.9293 57.4249 21.9728 57.4249 30.0356C57.4249 38.1081 60.3125 45.1074 66.1505 51.1888C68.9604 54.1152 68.8259 54.187 64.3735 52.1416C56.9251 48.7197 49.9261 43.3211 44.5893 36.8808C42.2685 34.0802 39.8918 30.5731 39.9029 29.9656C39.9076 29.7076 40.9945 27.9748 42.3179 26.1144C46.5445 20.1732 52.965 14.3017 59.3079 10.5769C61.8541 9.08192 67.6639 6.33911 68.3079 6.32797C68.4885 6.3251 67.505 7.49494 66.1216 8.92743ZM111.65 8.48838C118.123 11.5962 124.478 16.4042 129.133 21.7167C131.636 24.5734 135.06 29.3728 135.06 30.0241C135.06 30.5771 132.587 34.2005 130.464 36.7583C125.03 43.3049 118.034 48.7176 110.581 52.1416C106.129 54.187 105.994 54.1152 108.804 51.1888C114.642 45.1074 117.53 38.1081 117.53 30.0356C117.53 21.9631 114.642 14.9638 108.804 8.88252C105.876 5.83287 106.064 5.80665 111.65 8.48838ZM53.2773 10.9456C38.0075 21.7522 28.7817 39.8266 28.81 58.8808C28.8239 68.0527 30.6228 75.8564 34.7711 84.7373L36.0716 87.5218L34.7711 90.3063C30.6228 99.1872 28.8239 106.991 28.81 116.163C28.7817 135.195 38.0454 153.345 53.2773 164.102C54.6365 165.061 55.6046 165.847 55.429 165.847C55.2533 165.847 52.838 164.719 50.0614 163.342C33.457 155.102 20.1517 141.738 12.0157 125.13C7.77184 116.467 5.25816 108.359 3.91975 99.0191C3.04251 92.8971 3.04251 82.1465 3.91975 76.0246C7.41121 51.6573 20.6454 30.557 41.0048 16.8965C44.5496 14.5183 54.487 9.19689 55.3839 9.19689C55.5842 9.19689 54.6365 9.98374 53.2773 10.9456ZM124.889 11.6785C138.28 18.3462 149.479 28.2299 157.627 40.5721C176.522 69.1888 176.522 105.855 157.627 134.472C149.479 146.814 138.28 156.697 124.889 163.365C122.148 164.73 119.748 165.847 119.556 165.847C119.364 165.847 120.353 165.038 121.754 164.05C125.885 161.136 131.078 156.058 134.309 151.772C142.033 141.525 146.151 129.178 146.151 116.265C146.151 107.35 144.333 99.281 140.415 90.8129L138.892 87.5218L140.415 84.2307C144.333 75.7627 146.151 67.6934 146.151 58.7787C146.151 39.7903 136.888 21.6833 121.677 10.942C120.318 9.9823 119.364 9.19689 119.556 9.19689C119.748 9.19689 122.148 10.3136 124.889 11.6785ZM39.8858 35.7059C40.7662 37.0335 43.5836 40.2254 46.1467 42.7994C51.2846 47.9598 55.5935 51.1094 61.6269 54.1144C65.0533 55.8211 72.0995 58.4194 73.3016 58.4194C74.6471 58.4194 73.713 59.0227 71.4673 59.604C65.2168 61.2223 56.6132 65.6605 51.0291 70.1473C47.4726 73.0048 41.9032 78.8745 39.8593 81.9191C38.9931 83.2096 38.1853 84.2706 38.064 84.2767C37.7188 84.2947 35.6283 79.4033 34.4999 75.9366C32.6156 70.1491 31.8871 65.3652 31.8871 58.7787C31.8871 52.1923 32.6156 47.4083 34.4999 41.6209C35.6283 38.1541 37.7188 33.2628 38.064 33.2807C38.1853 33.2868 39.0049 34.3784 39.8858 35.7059ZM138.272 35.8741C141.586 43.3132 143.068 50.3915 143.068 58.7787C143.068 65.3652 142.339 70.1491 140.455 75.9366C139.326 79.4033 137.236 84.2947 136.891 84.2767C136.77 84.2706 135.95 83.1791 135.069 81.8515C134.189 80.524 131.371 77.3249 128.808 74.7419C123.713 69.6073 119.083 66.2358 113.12 63.3176C109.651 61.62 102.901 59.138 101.753 59.138C101.379 59.138 101.073 58.9763 101.073 58.7787C101.073 58.5811 101.334 58.4194 101.653 58.4194C102.855 58.4194 109.902 55.8211 113.328 54.1144C119.361 51.1094 123.67 47.9598 128.808 42.7994C131.371 40.2254 134.189 37.0335 135.069 35.7059C135.95 34.3784 136.77 33.2868 136.891 33.2807C137.012 33.2743 137.634 34.4416 138.272 35.8741ZM94.637 61.3193C103.935 63.9065 110.98 71.0445 113.658 80.5908C114.765 84.5361 114.759 90.5298 113.643 94.5075C110.962 104.07 103.938 111.109 94.3791 113.814C90.4751 114.919 84.4797 114.919 80.5757 113.814C70.9951 111.103 63.9989 104.092 61.3114 94.5075C60.1887 90.5046 60.1887 84.539 61.3114 80.5362C64.303 69.8682 72.781 62.3034 83.7126 60.5475C86.4059 60.1149 91.6375 60.4843 94.637 61.3193ZM66.1216 66.4136C60.3272 72.4155 57.4249 79.459 57.4249 87.5218C57.4249 95.6001 60.3254 102.626 66.1505 108.66L68.6946 111.295L66.8278 110.556C59.812 107.779 53.8916 103.795 48.1216 97.9682C44.0505 93.8568 39.8943 88.5796 39.8943 87.5218C39.8943 86.8816 43.179 82.2726 45.7006 79.3746C50.8352 73.474 57.3484 68.6459 64.5803 65.3803C66.4496 64.536 68.1272 63.8372 68.3079 63.8271C68.4885 63.817 67.505 64.9808 66.1216 66.4136ZM109.597 65.0605C116.747 68.2176 122.143 72.0307 127.726 77.8724C131.119 81.4215 135.06 86.6078 135.06 87.5218C135.06 88.5961 130.905 93.8719 126.842 97.9548C122.008 102.814 118.014 105.781 112.7 108.462C109.561 110.046 106.908 111.235 106.514 111.235C106.406 111.235 107.45 110.063 108.833 108.63C114.628 102.628 117.53 95.5846 117.53 87.5218C117.53 79.459 114.628 72.4155 108.833 66.4136C107.45 64.9808 106.418 63.8088 106.54 63.8088C106.662 63.8088 108.038 64.3721 109.597 65.0605ZM39.8593 93.1246C41.9032 96.1692 47.4726 102.039 51.0291 104.896C56.6132 109.383 65.2168 113.821 71.4673 115.44C72.7957 115.783 73.8822 116.155 73.8822 116.265C73.8822 116.375 72.7957 116.746 71.4673 117.09C65.9251 118.525 59.3254 121.729 53.3106 125.906C49.7691 128.365 42.0463 136.094 39.8893 139.338C39.0067 140.665 38.1853 141.757 38.064 141.763C37.7188 141.781 35.6283 136.89 34.4999 133.423C32.6156 127.635 31.8871 122.851 31.8871 116.265C31.8871 109.678 32.6156 104.895 34.4999 99.1071C35.6283 95.6403 37.7188 90.749 38.064 90.7669C38.1853 90.773 38.9931 91.834 39.8593 93.1246ZM138.272 93.3603C141.586 100.799 143.068 107.878 143.068 116.265C143.068 122.851 142.339 127.635 140.455 133.423C139.326 136.89 137.236 141.781 136.891 141.763C136.77 141.757 135.95 140.665 135.069 139.338C132.597 135.611 124.803 128.002 120.518 125.133C115.842 122.002 110.766 119.485 105.867 117.869C103.722 117.162 101.725 116.497 101.43 116.392C101.135 116.287 102.242 115.807 103.891 115.324C110.091 113.51 115.7 110.762 121.644 106.628C125.19 104.161 132.911 96.4315 135.065 93.1921C135.948 91.8646 136.77 90.773 136.891 90.7669C137.012 90.7605 137.634 91.9274 138.272 93.3603ZM94.637 118.805C103.935 121.393 110.98 128.531 113.658 138.077C114.765 142.022 114.759 148.016 113.643 151.994C110.962 161.556 103.938 168.596 94.3791 171.3C90.4751 172.405 84.4797 172.405 80.5757 171.3C70.9951 168.59 63.9989 161.578 61.3114 151.994C60.1887 147.991 60.1887 142.025 61.3114 138.022C64.303 127.354 72.781 119.79 83.7126 118.034C86.4059 117.601 91.6375 117.97 94.637 118.805ZM66.1216 123.9C60.3272 129.902 57.4249 136.945 57.4249 145.008C57.4249 153.071 60.3272 160.114 66.1216 166.116C67.505 167.549 68.5368 168.721 68.4152 168.721C68.2936 168.721 66.7366 168.087 64.9556 167.311C56.5863 163.665 48.5741 157.282 42.9912 149.811C39.8596 145.621 39.6625 145.216 40.2317 144.148C41.2052 142.321 45.005 137.539 47.6454 134.819C51.0957 131.263 54.6694 128.397 58.6982 125.953C61.5879 124.2 67.5505 121.313 68.3079 121.3C68.4885 121.297 67.505 122.467 66.1216 123.9ZM111.65 123.461C118.185 126.598 124.336 131.278 129.195 136.808C131.721 139.683 135.06 144.345 135.06 144.997C135.06 145.222 134.434 146.328 133.669 147.453C129.168 154.074 122.938 159.986 116.005 164.213C113.627 165.662 107.205 168.721 106.54 168.721C106.418 168.721 107.45 167.549 108.833 166.116C114.628 160.114 117.53 153.071 117.53 145.008C117.53 136.936 114.642 129.936 108.804 123.855C105.876 120.805 106.064 120.779 111.65 123.461Z" fill="url(#paint0_linear_251_708)"/>
<defs>
<linearGradient id="paint0_linear_251_708" x1="34.8856" y1="13.8676" x2="152.437" y2="147.388" gradientUnits="userSpaceOnUse">
<stop stop-color="#B381E0"/>
<stop offset="1" stop-color="#5FABD9"/>
</linearGradient>
</defs>
</svg>
