<svg width="31" height="42" viewBox="0 0 31 42" fill="none" xmlns="http://www.w3.org/2000/svg">
<path fill-rule="evenodd" clip-rule="evenodd" d="M12.9982 0.136776C7.38083 1.03488 2.71517 4.74049 0.82906 9.8018C0.64306 10.3009 0.380375 11.1815 0.245389 11.7587C0.00206631 12.7992 0 12.8766 0 20.996C0 29.1154 0.00206631 29.1927 0.245389 30.2332C1.68031 36.368 6.6278 40.8571 13.0526 41.8539C14.3055 42.0483 16.6884 42.0488 17.9506 41.8549C21.3801 41.3282 24.5057 39.7487 26.8623 37.3512C28.8056 35.3743 30.1101 32.9887 30.7546 30.2332C30.9979 29.1927 31 29.1154 31 20.996C31 12.8766 30.9979 12.7992 30.7546 11.7587C29.3204 5.62695 24.3557 1.12067 17.9506 0.136981C16.7621 -0.0456262 14.1396 -0.0456261 12.9982 0.136776ZM18.2737 2.2605C22.3306 3.03883 25.8824 5.72891 27.6797 9.38447C28.1775 10.3968 28.4842 11.3497 28.7113 12.5897C28.9601 13.9471 28.9601 28.0448 28.7113 29.4022C27.7569 34.6124 23.6402 38.6722 18.2193 39.7493C16.7525 40.0407 14.4779 40.0673 13.0872 39.8091C10.3027 39.2922 8.0836 38.1791 6.07992 36.2943C3.98551 34.3242 2.78826 32.1483 2.2878 29.4022C2.04056 28.0462 2.04056 13.9457 2.2878 12.5897C2.76727 9.95876 3.93765 7.76922 5.8888 5.85271C8.11624 3.66482 11.0167 2.34784 14.3579 2.00724C15.1851 1.92299 17.19 2.05266 18.2737 2.2605ZM14.4123 11.8544V17.4409L12.0193 15.1768L9.62632 12.9127L8.86502 13.6336L8.10384 14.3543L11.5826 17.6471C14.9982 20.8801 15.0692 20.9398 15.5 20.9398C15.9308 20.9398 16.0018 20.8801 19.4174 17.6471L22.8962 14.3543L22.135 13.6336L21.3737 12.9127L18.9807 15.1768L16.5877 17.4409V11.8544V6.26788H15.5H14.4123V11.8544Z" fill="url(#paint0_linear_251_534)"/>
<defs>
<linearGradient id="paint0_linear_251_534" x1="15.5" y1="14.7" x2="15.5" y2="39.9" gradientUnits="userSpaceOnUse">
<stop stop-color="#5FABD9"/>
<stop offset="1" stop-color="#9B5BD4"/>
</linearGradient>
</defs>
</svg>
